<svg width="30" height="34" viewBox="0 0 30 34" fill="none" xmlns="http://www.w3.org/2000/svg">
<path d="M1 5H29M11 11V27M19 11V27M5 5H25V29C25 30.0609 24.5786 31.0783 23.8284 31.8284C23.0783 32.5786 22.0609 33 21 33H9C7.93913 33 6.92172 32.5786 6.17157 31.8284C5.42143 31.0783 5 30.0609 5 29V5ZM15 1C16.0092 0.999681 16.9811 1.38081 17.7211 2.06699C18.4611 2.75318 18.9143 3.69369 18.99 4.7L19 5H11C11 3.93913 11.4214 2.92172 12.1716 2.17157C12.9217 1.42143 13.9391 1 15 1Z" stroke="#838786" stroke-width="2" stroke-linecap="round" stroke-linejoin="round"/>
</svg>
