<svg width="36" height="31" viewBox="0 0 36 31" fill="none" xmlns="http://www.w3.org/2000/svg">
<path d="M26.1818 0C22.7455 0 19.7575 1.56134 18 4.17785C16.2425 1.56134 13.2545 0 9.81818 0C7.21517 0.00305444 4.71964 1.04626 2.87903 2.90077C1.03842 4.75527 0.00303155 7.26965 0 9.89232C0 14.7066 2.97818 19.717 8.85273 24.7819C11.5446 27.093 14.4524 29.136 17.5353 30.8822C17.6781 30.9595 17.8378 31 18 31C18.1622 31 18.3219 30.9595 18.4647 30.8822C21.5476 29.136 24.4554 27.093 27.1473 24.7819C33.0218 19.717 36 14.7066 36 9.89232C35.997 7.26965 34.9616 4.75527 33.121 2.90077C31.2804 1.04626 28.7848 0.00305444 26.1818 0ZM18 28.8707C15.3147 27.3094 1.96364 19.079 1.96364 9.89232C1.9658 7.7941 2.79403 5.78245 4.26657 4.29879C5.73912 2.81512 7.73569 1.98065 9.81818 1.97846C13.1367 1.97846 15.9235 3.76403 17.0918 6.63939C17.1658 6.82083 17.2916 6.97601 17.4533 7.08523C17.615 7.19444 17.8053 7.25275 18 7.25275C18.1947 7.25275 18.385 7.19444 18.5467 7.08523C18.7084 6.97601 18.8342 6.82083 18.9082 6.63939C20.0765 3.76403 22.8633 1.97846 26.1818 1.97846C28.2643 1.98065 30.2609 2.81512 31.7334 4.29879C33.206 5.78245 34.0342 7.7941 34.0364 9.89232C34.0364 19.079 20.6853 27.3094 18 28.8707Z" fill="#838786"/>
</svg>
