<svg aria-hidden="true" xmlns="http://www.w3.org/2000/svg" xmlns:xlink="http://www.w3.org/1999/xlink">
  <symbol viewBox="0 0 446.843 446.843" xml:space="preserve" class="" id="cart" xmlns="http://www.w3.org/2000/svg">
    <g>
      <path
        d="M444.09 93.103a14.343 14.343 0 0 0-11.584-5.888H109.92c-.625 0-1.249.038-1.85.119l-13.276-38.27a14.352 14.352 0 0 0-8.3-8.646L19.586 14.134c-7.374-2.887-15.695.735-18.591 8.1-2.891 7.369.73 15.695 8.1 18.591l60.768 23.872 74.381 214.399c-3.283 1.144-6.065 3.663-7.332 7.187l-21.506 59.739a11.928 11.928 0 0 0 1.468 10.916 11.95 11.95 0 0 0 9.773 5.078h11.044c-6.844 7.616-11.044 17.646-11.044 28.675 0 23.718 19.298 43.012 43.012 43.012s43.012-19.294 43.012-43.012c0-11.029-4.2-21.059-11.044-28.675h93.776c-6.847 7.616-11.048 17.646-11.048 28.675 0 23.718 19.294 43.012 43.013 43.012 23.718 0 43.012-19.294 43.012-43.012 0-11.029-4.2-21.059-11.043-28.675h13.433c6.599 0 11.947-5.349 11.947-11.948s-5.349-11.947-11.947-11.947H143.647l13.319-36.996c1.72.724 3.578 1.152 5.523 1.152h210.278a14.33 14.33 0 0 0 13.65-9.959l59.739-186.387a14.33 14.33 0 0 0-2.066-12.828zM169.659 409.807c-10.543 0-19.116-8.573-19.116-19.116s8.573-19.117 19.116-19.117 19.116 8.574 19.116 19.117-8.573 19.116-19.116 19.116zm157.708 0c-10.543 0-19.117-8.573-19.117-19.116s8.574-19.117 19.117-19.117c10.542 0 19.116 8.574 19.116 19.117s-8.574 19.116-19.116 19.116zm75.153-261.658h-73.161V115.89h83.499l-10.338 32.259zm-21.067 65.712h-52.094v-37.038h63.967l-11.873 37.038zm-146.882 0v-37.038h66.113v37.038h-66.113zm66.113 28.677v31.064h-66.113v-31.064h66.113zm-161.569-65.715h66.784v37.038h-53.933l-12.851-37.038zm95.456-28.674V115.89h66.113v32.259h-66.113zm-28.673-32.259v32.259h-76.734l-11.191-32.259h87.925zm-43.982 126.648h43.982v31.064h-33.206l-10.776-31.064zm167.443 31.065v-31.064h42.909l-9.955 31.064h-32.954z"
        fill="currentColor" opacity="1" data-original="#000000" class="" />
    </g>
  </symbol>
  <symbol viewBox="0 0 64 64" xml:space="preserve" class="" id="favorite" xmlns="http://www.w3.org/2000/svg">
    <g>
      <path
        d="M45.5 4A18.53 18.53 0 0 0 32 9.86 18.5 18.5 0 0 0 0 22.5C0 40.92 29.71 59 31 59.71a2 2 0 0 0 2.06 0C34.29 59 64 40.92 64 22.5A18.52 18.52 0 0 0 45.5 4ZM32 55.64C26.83 52.34 4 36.92 4 22.5a14.5 14.5 0 0 1 26.36-8.33 2 2 0 0 0 3.27 0A14.5 14.5 0 0 1 60 22.5c0 14.41-22.83 29.83-28 33.14Z"
        fill="currentColor" opacity="1" data-original="#000000" class="" />
    </g>
  </symbol>
  <symbol viewBox="0 0 682.667 682.667" xml:space="preserve" class="" id="location" xmlns="http://www.w3.org/2000/svg">
    <g transform="matrix(-1,0,0,1,682.6649932861328,0)">
      <defs>
        <clipPath id="ca" clipPathUnits="userSpaceOnUse">
          <path d="M0 512h512V0H0Z" fill="currentColor" opacity="1" data-original="#000000" />
        </clipPath>
      </defs>
      <g clip-path="url(#ca)" transform="matrix(1.33333 0 0 -1.33333 0 682.667)">
        <path d="M0 0v482l330-331H150L0 0" transform="translate(91 15)" fill="none" stroke="currentColor"
          stroke-width="30" stroke-linecap="round" stroke-linejoin="round" stroke-miterlimit="10"
          stroke-dasharray="none" stroke-opacity="" data-original="#000000" class="" />
      </g>
    </g>
  </symbol>
  <symbol viewBox="0 0 462 462" xml:space="preserve" class="" id="user" xmlns="http://www.w3.org/2000/svg">
    <g transform="matrix(1.3499999999999992,0,0,1.3499999999999992,-80.84999999999991,-80.85000801086426)">
      <path
        d="M231 229.91a72 72 0 1 1 72-72 72.08 72.08 0 0 1-72 72zm0-124a52 52 0 1 0 52 52 52.06 52.06 0 0 0-52-52zM356 376.09a10 10 0 0 1-10-10v-24.72a71.7 71.7 0 0 0-71.62-71.62h-86.76A71.7 71.7 0 0 0 116 341.37v24.72a10 10 0 0 1-20 0v-24.72a91.73 91.73 0 0 1 91.62-91.62h86.75A91.73 91.73 0 0 1 366 341.37v24.72a10 10 0 0 1-10 10z"
        fill="currentColor" opacity="1" data-original="#000000" class="" />
    </g>
  </symbol>
</svg>
